<svg width="192" height="198" viewBox="0 0 192 198" fill="none" xmlns="http://www.w3.org/2000/svg">
<path d="M94.7498 88.88H191.23V100.256C191.23 113.792 188.926 126.464 184.318 138.272C179.806 149.984 173.326 160.304 164.878 169.232C156.43 178.064 146.398 184.976 134.782 189.968C123.262 194.96 110.542 197.456 96.6218 197.456C82.3178 197.456 69.2618 194.912 57.4538 189.824C45.6458 184.736 35.4698 177.68 26.9258 168.656C18.3818 159.632 11.7578 149.168 7.05375 137.264C2.44575 125.264 0.14175 112.448 0.14175 98.816C0.14175 85.28 2.44575 72.56 7.05375 60.656C11.7578 48.656 18.3818 38.192 26.9258 29.264C35.4698 20.24 45.6458 13.184 57.4538 8.096C69.2618 3.00799 82.3178 0.463985 96.6218 0.463985C107.662 0.463985 117.502 1.66399 126.142 4.064C134.782 6.464 142.318 9.72799 148.75 13.856C155.278 17.888 160.894 22.4 165.598 27.392C170.398 32.288 174.382 37.232 177.55 42.224L143.854 58.64C139.246 51.92 133.102 46.16 125.422 41.36C117.838 36.56 108.238 34.16 96.6218 34.16C87.9818 34.16 80.0138 35.888 72.7178 39.344C65.5178 42.704 59.2778 47.36 53.9978 53.312C48.8138 59.264 44.7818 66.176 41.9018 74.048C39.0218 81.824 37.5818 90.08 37.5818 98.816C37.5818 107.648 39.0218 115.952 41.9018 123.728C44.7818 131.504 48.8138 138.416 53.9978 144.464C59.2778 150.416 65.5178 155.072 72.7178 158.432C80.0138 161.792 87.9818 163.472 96.6218 163.472C104.494 163.472 111.646 162.32 118.078 160.016C124.51 157.712 130.078 154.448 134.782 150.224C139.582 146 143.374 141.056 146.158 135.392C148.942 129.632 150.526 123.44 150.91 116.816H94.7498V88.88Z" fill="url(#paint0_radial_15_5)"/>
<defs>
<radialGradient id="paint0_radial_15_5" cx="0" cy="0" r="1" gradientUnits="userSpaceOnUse" gradientTransform="translate(99 124.5) rotate(155.104) scale(214.977 170.359)">
<stop offset="0.15625" stop-color="#4285F4"/>
<stop offset="0.291667" stop-color="#F4B400"/>
<stop offset="0.416667" stop-color="#0F9D58"/>
<stop offset="0.645833" stop-color="#FF4030"/>
</radialGradient>
</defs>
</svg>
